<?xml version="1.0" encoding="UTF-8"?>
<svg width="55px" height="98px" viewBox="0 0 55 98" version="1.1" xmlns="http://www.w3.org/2000/svg" xmlns:xlink="http://www.w3.org/1999/xlink">
    <!-- Generator: Sketch 63.1 (92452) - https://sketch.com -->
    <title>1Asset 8</title>
    <desc>Created with Sketch.</desc>
    <g id="Home-&amp;-Utility-Pages" stroke="none" stroke-width="1" fill="none" fill-rule="evenodd">
        <g id="Homepage-2" transform="translate(-102.000000, -6322.000000)" fill="#FFFFFF" fill-rule="nonzero">
            <g id="1Asset-8" transform="translate(102.000000, 6322.000000)">
                <path d="M27.07,97.57 C12.1226056,97.5534571 0.0110221398,85.4373995 -3.55271368e-15,70.49 L-3.55271368e-15,27.07 C0.283489745,12.3196768 12.3219528,0.510360452 27.075,0.510360452 C41.8280472,0.510360452 53.8665103,12.3196768 54.15,27.07 L54.15,70.49 C54.1334665,85.4390173 42.0190173,97.5534665 27.07,97.57 Z M27.07,1.32 C12.855521,1.33653168 1.33653168,12.855521 1.32,27.07 L1.32,70.49 C1.13629731,79.8123458 6.00459883,88.5062498 14.0487614,93.2212605 C22.092924,97.9362711 32.057076,97.9362711 40.1012386,93.2212605 C48.1454012,88.5062498 53.0137027,79.8123458 52.83,70.49 L52.83,27.07 C52.8079606,12.8539035 41.286104,1.33651969 27.07,1.32 Z" id="Shape"></path>
                <path d="M35.28,22.76 C35.2643952,21.2963284 35.3445664,19.8332038 35.52,18.38 C34.44,18.38 33.4,18.38 32.41,18.38 C32.8241008,20.0840522 32.9957917,21.8379929 32.92,23.59 L32.92,26.59 L32.77,26.59 C31.1,26.64 28.37,26.7 26.97,26.7 C25.24,26.7 22.63,26.64 21.37,26.59 L21.22,26.59 L21.22,23.33 C21.22,21.21 21.3,19.83 21.43,18.33 C20.92,18.33 20.2,18.33 19.43,18.33 C19.13,18.33 18.8,18.33 18.34,18.33 C18.7431641,19.9169854 18.9149383,21.5538928 18.85,23.19 L18.85,32.54 C18.8882816,34.0619075 18.7945977,35.5842697 18.57,37.09 C18.57,37.3 18.51,37.53 18.48,37.77 C18.88,37.77 19.48,37.77 20.12,37.77 C20.76,37.77 21.3,37.77 21.69,37.77 C21.2763095,36.0692748 21.1046178,34.318692 21.18,32.57 L21.18,28.21 L21.33,28.21 C23.51,28.16 25.28,28.13 26.91,28.13 C28.72,28.13 30.53,28.13 32.76,28.21 L32.91,28.21 L32.91,32.59 C32.9247999,34.3436833 32.801082,36.0957969 32.54,37.83 C33.54,37.83 34.8,37.77 35.78,37.83 C35.3657812,36.1293645 35.1940821,34.3787066 35.27,32.63 L35.28,22.76 Z" id="Path"></path>
                <path d="M23.7,59.81 C22.91,59.81 22.04,59.81 21.04,59.81 L18.84,59.81 L18.56,62.38 L18.7,62.38 C20.08,61.1 21.99,61 23.7,61 L25.7,61 L25.7,61.14 C25.76,62.38 25.79,63.54 25.79,64.7 L25.79,74 C25.8317519,75.7519026 25.7011233,77.5036655 25.4,79.23 C26.2,79.23 27.78,79.23 28.64,79.23 C28.2752333,77.5219038 28.120753,75.7756051 28.18,74.03 L28.18,64.72 C28.18,63.32 28.18,62.16 28.29,61.07 L28.29,60.93 L29.57,60.93 C31.63,60.93 33.45,61.03 34.75,62.28 L34.93,62.28 C35.092555,61.4109135 35.3198551,60.5551955 35.61,59.72 L34.31,59.72 C31.99,59.72 31.21,59.79 29.8,59.79 L23.7,59.81 Z" id="Path"></path>
                <rect id="Rectangle" x="11.9" y="48.13" width="30.35" height="1.32"></rect>
            </g>
        </g>
    </g>
</svg>