<?xml version="1.0" encoding="UTF-8"?>
<svg width="285px" height="101px" viewBox="0 0 285 101" version="1.1" xmlns="http://www.w3.org/2000/svg" xmlns:xlink="http://www.w3.org/1999/xlink">
    <!-- Generator: Sketch 63.1 (92452) - https://sketch.com -->
    <title>H Knockout logo</title>
    <desc>Created with Sketch.</desc>
    <g id="Home-&amp;-Utility-Pages" stroke="none" stroke-width="1" fill="none" fill-rule="evenodd">
        <g id="Homepage-2" transform="translate(-578.000000, -41.000000)" fill="#FFFFFF" fill-rule="nonzero">
            <g id="H-Knockout-logo" transform="translate(578.000000, 41.000000)">
                <path d="M19.46,61.74 C19.443,60.069 19.533,58.399 19.73,56.74 C18.49,56.74 17.3,56.74 16.16,56.74 C16.643,58.701 16.841,60.722 16.75,62.74 L16.75,66.21 L16.58,66.21 C14.66,66.27 11.52,66.34 9.91,66.34 C7.91,66.34 4.91,66.27 3.47,66.21 L3.3,66.21 L3.3,62.39 C3.3,59.95 3.39,58.39 3.54,56.68 C2.95,56.68 2.13,56.68 1.26,56.68 C0.91,56.68 0.52,56.68 0,56.68 C0.463,58.506 0.662,60.388 0.59,62.27 L0.59,73.06 C0.636,74.8 0.525,76.54 0.26,78.26 C0.26,78.51 0.19,78.76 0.16,79.05 C0.62,79.05 1.34,79.05 2.04,79.05 C2.74,79.05 3.4,79.05 3.85,79.05 C3.376,77.087 3.181,75.067 3.27,73.05 L3.27,68 L3.44,68 C5.94,67.94 7.98,67.9 9.84,67.9 C11.93,67.9 14,67.9 16.58,68 L16.75,68 L16.75,73 C16.765,75.008 16.622,77.015 16.32,79 C17.5,78.94 18.92,78.94 20.05,79 C19.568,77.038 19.369,75.018 19.46,73 L19.46,61.74 Z" id="Path"></path>
                <path d="M31,74.06 L31,67.99 L33.89,67.99 C35.276,67.985 36.661,68.055 38.04,68.2 C38.242,67.515 38.496,66.846 38.8,66.2 L38.68,66.06 C37.26,66.229 35.83,66.312 34.4,66.31 L31,66.31 L31,62.31 C31,60.9 31.07,59.31 31.13,58.25 L31.13,58.09 L31.29,58.09 C32.2,58.06 33.12,58.06 33.68,58.06 C35.53,58.06 37.4,58.23 38.58,59.51 L38.76,59.51 C39.027,58.535 39.361,57.579 39.76,56.65 C38.06,56.71 36.94,56.74 35.46,56.74 L29.46,56.74 C29.1,56.74 28.34,56.74 27.71,56.74 C28.173,58.566 28.372,60.448 28.3,62.33 L28.3,73.06 C28.294,75.067 28.15,77.072 27.87,79.06 C29.04,79.06 30.29,79.06 32.2,79.06 C34.74,79.06 37.48,79.12 40.34,79.24 C40.533,78.157 40.787,77.085 41.1,76.03 L40.92,75.95 C39.16,77.52 37.1,77.65 34.97,77.65 C31.54,77.59 31,76.75 31,74.06 Z" id="Path"></path>
                <path d="M59.69,73.17 L58.32,71.17 C57.43,69.9 56.6,68.7 55.68,67.48 L55.54,67.29 L55.75,67.21 C57.83,66.32 60.21,64.87 60.21,61.46 C60.29,60.02 59.699,58.625 58.61,57.68 C57.61,56.85 56.37,56.58 53.83,56.58 C52.52,56.58 51.52,56.58 50.64,56.58 C49.76,56.58 49.21,56.58 48.47,56.58 C48.14,56.58 47.47,56.58 46.89,56.58 C47.349,58.406 47.544,60.289 47.47,62.17 L47.47,73.06 C47.532,75.068 47.402,77.077 47.08,79.06 C48,79 49.87,79 50.77,79.06 C50.296,77.097 50.101,75.077 50.19,73.06 L50.19,62.39 C50.19,60.81 50.19,59.91 50.29,58.86 L50.29,58.05 L50.44,58.05 C51.215,57.931 51.996,57.868 52.78,57.86 C55.63,57.86 57.34,59.46 57.34,62.15 C57.34,65.73 54.67,67 52.39,67 C52.02,67 51.69,67 51.39,67 L51.39,67.11 C52.536,68.139 53.575,69.281 54.49,70.52 C56.059,72.524 57.515,74.614 58.85,76.78 L60.39,79.3 C61.27,79.21 62.28,79.18 63.45,79.15 L64.88,79.15 L64.88,79.15 C63.05,77.85 61.5,75.77 59.69,73.17 Z" id="Path"></path>
                <path d="M80.08,59.22 C79.631,58.2 79.295,57.134 79.08,56.04 C78.36,56.19 77.23,56.38 76.54,56.45 C76.219,57.825 75.763,59.164 75.18,60.45 L69.79,73.75 C69.058,75.571 68.213,77.344 67.26,79.06 L67.26,79.06 C67.98,79.06 68.62,79 69.26,79 C69.9,79 70.49,79 71.09,79 C71.013,78.571 70.983,78.135 71,77.7 C70.998,76.73 71.171,75.768 71.51,74.86 L73,70.54 L73.12,70.54 C74.38,70.54 75.81,70.47 77.21,70.47 C78.61,70.47 79.81,70.47 81.21,70.54 L81.47,70.54 L82.62,73.89 C83.228,75.57 83.69,77.3 84,79.06 C84.77,79 85.33,78.98 86.14,78.98 C86.68,78.98 87.44,78.98 88.07,78.98 C87.082,77.25 86.239,75.44 85.55,73.57 L80.08,59.22 Z M80.64,69 C79.5,69.07 78.4,69.07 77.24,69.07 C76.08,69.07 74.95,69.07 73.83,69 L73.59,69 L77.41,58.95 L80.88,69.01 L80.64,69 Z" id="Shape"></path>
                <path d="M96.49,73.16 L96.49,62.42 C96.478,60.51 96.568,58.601 96.76,56.7 C96.04,56.7 95.45,56.7 94.93,56.7 C94.58,56.7 93.81,56.7 93.19,56.7 C93.649,58.526 93.844,60.409 93.77,62.29 L93.77,73.06 C93.802,75.067 93.672,77.074 93.38,79.06 C94.17,79.06 95.02,79.06 95.95,79.06 C98.14,79.06 102.62,79.06 105.85,79.25 C106.026,78.16 106.29,77.087 106.64,76.04 L106.46,75.93 C104.98,77.44 102.74,77.65 100.52,77.65 C96.67,77.59 96.49,76.52 96.49,73.16 Z" id="Path"></path>
                <path d="M152.79,56.76 C151.88,56.76 150.89,56.76 149.73,56.71 L147.21,56.71 L146.88,59.71 L147.05,59.71 C148.63,58.24 150.83,58.11 152.76,58.11 L155.05,58.11 L155.05,58.28 C155.12,59.7 155.15,61.04 155.15,62.37 L155.15,73.06 C155.196,75.07 155.045,77.079 154.7,79.06 C155.62,79.06 157.43,79 158.43,79.06 C158.003,77.09 157.825,75.074 157.9,73.06 L157.9,62.39 C157.9,60.78 157.9,59.45 158.03,58.2 L158.03,58.06 L159.5,58.06 C161.87,58.06 163.95,58.18 165.44,59.63 L165.65,59.63 C165.839,58.613 166.1,57.61 166.43,56.63 L164.94,56.63 C162.27,56.69 161.38,56.72 159.76,56.72 L152.79,56.76 Z" id="Path"></path>
                <path d="M180.325,55.841 C173.325,55.841 168.325,60.961 168.325,68.011 C168.325,75.061 172.855,79.881 179.325,79.881 C182.662,80.001 185.897,78.725 188.253,76.36 C190.61,73.996 191.876,70.757 191.745,67.421 C191.735,60.391 187.255,55.841 180.325,55.841 Z M180.065,78.371 C175.065,78.371 171.525,73.871 171.525,67.371 C171.525,61.251 174.875,57.301 180.065,57.301 C185.065,57.301 188.505,61.811 188.505,68.301 C188.505,74.431 185.195,78.371 180.065,78.371 Z" id="Shape"></path>
                <path d="M221.85,56.7 C222.133,57.534 222.272,58.41 222.26,59.29 C222.246,60.201 222.146,61.108 221.96,62 L219.05,76.31 L217.6,72.11 L213.68,60.62 C213.231,59.315 212.88,57.978 212.63,56.62 C212.31,56.62 211.85,56.62 211.37,56.62 C210.89,56.62 210.46,56.62 210.17,56.62 C209.804,58.223 209.333,59.799 208.76,61.34 L204.76,71.72 C204.29,72.98 203.91,73.94 203.56,74.84 L202.98,76.34 L202.55,73.42 L200.69,60.91 C200.462,59.522 200.392,58.113 200.48,56.71 C199.82,56.71 198.79,56.71 197.87,56.71 L196.5,56.71 C197.214,58.755 197.772,60.851 198.17,62.98 L200.67,77.06 C200.76,77.57 200.86,78.22 200.95,78.86 L201.04,79.52 C201.36,79.52 201.86,79.46 202.39,79.46 C202.92,79.46 203.21,79.46 203.63,79.52 C203.75,78.727 203.975,77.953 204.3,77.22 L204.41,76.93 L209.77,63.25 C209.95,62.78 210.16,62.18 210.37,61.6 L210.68,60.71 L210.87,60.19 L211.13,61.1 C211.29,61.69 211.46,62.3 211.7,62.96 L216.79,77.2 C217.074,77.951 217.281,78.728 217.41,79.52 C217.71,79.52 218.17,79.46 218.68,79.46 C219.19,79.46 219.68,79.46 219.95,79.46 C220.006,78.705 220.153,77.959 220.39,77.24 C220.46,76.96 220.54,76.68 220.6,76.42 L224.26,61.06 C224.599,59.557 225.092,58.093 225.73,56.69 C225.22,56.69 224.42,56.69 223.65,56.69 C223,56.72 222.41,56.72 221.85,56.7 Z" id="Path"></path>
                <path d="M234.67,74.06 L234.67,67.99 L237.56,67.99 C238.946,67.985 240.332,68.055 241.71,68.2 C241.912,67.515 242.166,66.846 242.47,66.2 L242.36,66.11 C240.94,66.279 239.51,66.362 238.08,66.36 L234.67,66.36 L234.67,62.36 C234.67,60.95 234.74,59.36 234.8,58.3 L234.8,58.14 L235,58.14 C235.91,58.08 236.83,58.05 237.39,58.05 C239.24,58.05 241.11,58.22 242.29,59.5 L242.47,59.5 C242.72,58.526 243.038,57.57 243.42,56.64 C241.72,56.7 240.6,56.73 239.12,56.73 L233.12,56.73 C232.76,56.73 232,56.73 231.37,56.73 C231.833,58.556 232.032,60.438 231.96,62.32 L231.96,73.06 C231.954,75.067 231.81,77.072 231.53,79.06 C232.7,79.06 233.95,79.06 235.86,79.06 C238.4,79.06 241.14,79.12 244,79.24 C244.193,78.157 244.447,77.085 244.76,76.03 L244.58,75.95 C242.82,77.52 240.76,77.65 238.58,77.65 C235.22,77.59 234.67,76.75 234.67,74.06 Z" id="Path"></path>
                <path d="M263.37,73.17 L262,71.17 C261.11,69.9 260.28,68.7 259.36,67.48 L259.22,67.29 L259.43,67.21 C261.51,66.32 263.89,64.87 263.89,61.46 C263.97,60.02 263.379,58.625 262.29,57.68 C261.29,56.85 260.05,56.58 257.51,56.58 C256.21,56.58 255.2,56.58 254.32,56.58 C253.59,56.58 252.89,56.58 252.15,56.58 C251.82,56.58 251.15,56.58 250.57,56.58 C251.029,58.406 251.224,60.289 251.15,62.17 L251.15,73.06 C251.212,75.068 251.082,77.077 250.76,79.06 C251.22,79.06 251.95,79.06 252.64,79.06 C253.33,79.06 254,79.06 254.45,79.06 C253.976,77.097 253.781,75.077 253.87,73.06 L253.87,62.39 C253.87,60.81 253.87,59.91 253.97,58.86 L253.97,58.05 L254.11,58.05 C254.885,57.931 255.666,57.868 256.45,57.86 C259.31,57.86 261.01,59.46 261.01,62.15 C261.01,65.73 258.34,67 256.06,67 C255.69,67 255.36,67 255.06,67 L255.06,67.11 C256.21,68.138 257.252,69.281 258.17,70.52 C259.732,72.526 261.185,74.616 262.52,76.78 L264,79.25 C264.88,79.16 265.89,79.13 267.06,79.1 L268.49,79.1 L268.49,79.1 C266.73,77.85 265.18,75.77 263.37,73.17 Z" id="Path"></path>
                <path d="M278.91,65.95 C276.54,64.7 274.31,63.53 274.31,61.12 C274.31,58.92 275.99,57.45 278.5,57.45 C280.237,57.343 281.899,58.17 282.86,59.62 L283.06,59.62 C283.294,58.638 283.601,57.675 283.98,56.74 C282.516,56.218 280.974,55.948 279.42,55.94 C274.91,55.94 271.89,58.48 271.89,62.26 C271.89,65.82 274.62,67.26 277.25,68.6 C279.88,69.94 282.11,71.11 282.11,74.01 C282.11,76.44 280.05,78.27 277.33,78.27 C275.478,78.302 273.749,77.341 272.8,75.75 L272.58,75.75 C272.343,76.838 272.049,77.913 271.7,78.97 C273.172,79.529 274.735,79.811 276.31,79.8 C281.13,79.8 284.63,76.8 284.63,72.67 C284.63,68.96 281.72,67.43 278.91,65.95 Z" id="Path"></path>
                <path d="M187.94,91.81 C187.02,92.53 185.88,93.35 184.41,94.35 C183.81,94.81 183.1,95.35 182.46,95.75 L182.29,95.75 C182.29,94.15 182.29,93.03 182.29,91.81 L181,91.81 C181,93.06 181,94.11 181,95.81 C181,97.51 181,98.55 181,99.81 L182.33,99.81 C182.33,98.69 182.33,97.68 182.33,96.37 L182.5,96.37 C183.71,97.01 186.16,98.64 187.56,99.57 C187.804,99.744 188.101,99.828 188.4,99.81 L190.12,99.81 C189.57,99.49 188.21,98.61 185.65,97.01 C185.071,96.621 184.47,96.268 183.85,95.95 C185.5,94.9 188.35,92.85 189.85,91.8 L187.94,91.81 Z M174.36,96.41 C175.92,96.19 176.65,95.41 176.65,94.15 C176.65,92.46 175.49,91.81 173.4,91.81 L168.18,91.81 C168.18,92.96 168.18,94.12 168.18,95.81 C168.18,97.5 168.18,98.65 168.18,99.81 L169.53,99.81 C169.48,99.09 169.45,98.06 169.44,96.81 L173.1,96.81 C174.74,96.81 174.89,97.29 175.61,99.17 C175.74,99.67 175.8,99.77 176.08,99.77 L177.24,99.77 C177.08,99.47 176.88,98.91 176.58,98.12 C176.339,97.094 175.413,96.377 174.36,96.4 L174.36,96.41 Z M169.42,95.9 C169.42,94.9 169.42,93.9 169.42,92.83 C170.3,92.83 172.33,92.83 173.06,92.83 C174.75,92.83 175.39,93.22 175.39,94.36 C175.39,95.36 174.72,95.96 173.12,95.96 L169.39,95.96 M159.12,98.96 C156.71,98.96 155.32,97.96 155.32,95.84 C155.32,93.72 156.72,92.75 159.12,92.75 C161.52,92.75 162.91,93.75 162.91,95.84 C162.91,97.93 161.54,98.96 159.12,98.96 M164.21,95.82 C164.21,93.09 162.27,91.66 159.12,91.66 C155.97,91.66 154.04,93.09 154.04,95.82 C154.04,98.55 155.9,100.05 159.12,100.05 C162.34,100.05 164.21,98.53 164.21,95.82 M150.38,91.82 C150.11,92.29 148.83,93.93 148.13,94.95 C147.773,95.399 147.439,95.866 147.13,96.35 L147.02,96.35 C146.78,95.98 146.43,95.48 146.02,94.91 C145.34,93.91 144.1,92.3 143.83,91.82 L142.1,91.82 C143.25,93.03 145.57,96.21 146.44,97.41 C146.44,98.41 146.44,99.52 146.44,99.83 L147.76,99.83 C147.76,99.52 147.76,98.44 147.76,97.4 C148.67,96.2 150.96,93.1 152.09,91.82 L150.38,91.82 Z M131.92,91.82 C131.72,92.59 130.73,95.19 130.12,96.91 C129.81,97.72 129.58,98.33 129.43,98.78 L129.37,98.78 C129.22,98.33 129.02,97.71 128.69,96.88 C128.06,95.13 127.27,92.77 126.97,91.82 L125.47,91.82 C125.2,92.82 124.4,95.07 123.74,96.82 C123.43,97.65 123.21,98.27 123.06,98.73 L123,98.73 C122.85,98.28 122.67,97.73 122.35,96.89 C121.72,95.15 120.68,92.45 120.48,91.79 L119,91.79 C119.91,93.63 121.51,98.05 122.26,99.79 L123.65,99.79 C124.04,98.79 124.81,96.79 125.44,95.05 C125.74,94.27 125.95,93.52 126.11,92.97 L126.11,92.97 C126.26,93.51 126.48,94.23 126.76,94.97 C127.36,96.74 128.12,98.82 128.5,99.75 L130.04,99.75 C130.74,98.11 132.5,93.53 133.31,91.75 L131.92,91.82 Z M107.77,91.82 C107.77,92.82 107.77,94.13 107.77,95.82 C107.77,97.51 107.77,98.82 107.77,99.82 L116,99.82 C116,99.69 116,99.47 116,99.3 C116,99.13 116,98.91 116,98.77 C113.74,98.77 111,98.77 109.16,98.77 L109.16,96.23 L115.87,96.23 C115.87,96 115.87,95.51 115.87,95.23 C114.04,95.23 111.38,95.23 109.16,95.23 L109.16,92.77 L116,92.77 C116,92.67 116,92.43 116,92.26 C116,92.09 116,91.9 116,91.78 L107.77,91.82 Z M101.99,91.82 C101.99,92.59 102.05,94.63 102.06,96.62 C102.06,97.17 102.06,97.76 102.06,98.34 L102.06,98.34 C101.754,97.914 101.42,97.51 101.06,97.13 C99.28,95.28 96.4,92.48 95.88,91.81 L94.4,91.81 C94.4,92.81 94.4,94.12 94.4,95.81 C94.4,97.5 94.4,98.81 94.4,99.81 L95.65,99.81 C95.65,99.12 95.65,97.41 95.65,94.94 C95.65,94.33 95.65,93.7 95.59,93.08 C95.941,93.538 96.322,93.972 96.73,94.38 C98.73,96.38 101.34,99 101.98,99.81 L103.27,99.81 C103.27,98.73 103.27,97.54 103.27,95.81 C103.27,94.08 103.27,92.81 103.27,91.81 L101.99,91.82 Z" id="Shape"></path>
                <path d="M129.91,7.77 C129.91,7.66 129.91,7.56 129.91,7.45 C129.91,3.335 126.575,0 122.46,0 C118.345,0 115.01,3.335 115.01,7.45 L115.01,36.56 L129.88,36.56 L129.91,7.77 Z" id="Path"></path>
                <path d="M149.73,7.77 C149.73,7.66 149.73,7.56 149.73,7.45 C149.583,3.444 146.293,0.273 142.285,0.273 C138.277,0.273 134.987,3.444 134.84,7.45 L134.84,17.3 L149.7,17.3 L149.73,7.77 Z" id="Path"></path>
                <polygon id="Path" points="134.87 21.89 149.73 21.89 149.73 36.57 134.87 36.57"></polygon>
                <path d="M169.55,7.77 C169.55,7.66 169.55,7.56 169.55,7.45 C169.403,3.444 166.113,0.273 162.105,0.273 C158.097,0.273 154.807,3.444 154.66,7.45 L154.66,36.56 L169.52,36.56 L169.55,7.77 Z" id="Path"></path>
                <path d="M128.17,57.84 C126.17,56.77 123.43,56.62 121.03,56.62 C120.03,56.62 118.76,56.62 117.56,56.62 C116.36,56.62 115.21,56.62 114.24,56.62 C113.27,56.62 112.48,56.62 112.01,56.62 C112.469,58.446 112.664,60.328 112.59,62.21 L112.59,73.06 C112.649,74.792 112.545,76.527 112.28,78.24 C112.28,78.51 112.19,78.77 112.16,79.08 C112.96,79.08 113.79,79.08 114.6,79.08 C115.6,79.08 116.6,79.08 117.47,79.15 C118.34,79.22 119.04,79.21 119.79,79.21 C127.64,79.21 132.91,74.29 132.91,66.98 C132.91,62.82 131.11,59.44 128.17,57.84 Z M120.25,77.55 C115.81,77.55 115.31,77.09 115.31,73 L115.31,62.39 C115.31,61.47 115.31,60.56 115.37,59.67 C115.37,59.25 115.37,58.84 115.37,58.44 L115.37,58.27 L116.46,58.22 C117.6,58.16 118.77,58.1 119.95,58.1 C122.36,58.1 125.4,58.39 127.43,60.67 L127.43,60.67 C129.018,62.65 129.845,65.133 129.76,67.67 C129.8,73.78 126.11,77.55 120.25,77.55 Z" id="Shape"></path>
            </g>
        </g>
    </g>
</svg>